<svg width="84" height="84" viewBox="0 0 84 84" fill="none" xmlns="http://www.w3.org/2000/svg">
<g clip-path="url(#clip0_1_2260)">
<path d="M52.5 24.5H67.6305C69.062 24.5 70.35 25.3715 70.8785 26.7015L76.4995 40.7505C76.8285 41.5765 77 42.4585 77 43.3475V64.1655C77 65.0938 76.6313 65.984 75.9749 66.6404C75.3185 67.2968 74.4283 67.6655 73.5 67.6655H67.0915" stroke="#ADADAD" stroke-width="1.5" stroke-linecap="round" stroke-linejoin="round"/>
<path d="M77 49H63V35H74.2" stroke="#ADADAD" stroke-width="1.5" stroke-linecap="round" stroke-linejoin="round"/>
<path d="M56.0002 67.9702H28.5952" stroke="#ADADAD" stroke-width="1.5" stroke-linecap="round" stroke-linejoin="round"/>
<path d="M43.946 17.5H49C49.9283 17.5 50.8185 17.8687 51.4749 18.5251C52.1313 19.1815 52.5 20.0717 52.5 21V52.5H7" stroke="#ADADAD" stroke-width="1.5" stroke-linecap="round" stroke-linejoin="round"/>
<path d="M17.5 67.956H10.5C9.57174 67.956 8.6815 67.5872 8.02513 66.9309C7.36875 66.2745 7 65.3843 7 64.456V21C7 20.0717 7.36875 19.1815 8.02513 18.5251C8.6815 17.8687 9.57174 17.5 10.5 17.5H14.833" stroke="#ADADAD" stroke-width="1.5" stroke-linecap="round" stroke-linejoin="round"/>
<path d="M65.4642 64.0358C65.979 64.5506 66.3873 65.1617 66.6659 65.8343C66.9445 66.5069 67.0879 67.2278 67.0879 67.9558C67.0879 68.6838 66.9445 69.4047 66.6659 70.0773C66.3873 70.7499 65.979 71.361 65.4642 71.8758C64.9494 72.3906 64.3383 72.799 63.6657 73.0776C62.9931 73.3561 62.2722 73.4995 61.5442 73.4995C60.8162 73.4995 60.0953 73.3561 59.4227 73.0776C58.7501 72.799 58.139 72.3906 57.6242 71.8758C57.1094 71.361 56.7011 70.7499 56.4225 70.0773C56.1439 69.4047 56.0005 68.6838 56.0005 67.9558C56.0005 67.2278 56.1439 66.5069 56.4225 65.8343C56.7011 65.1617 57.1094 64.5506 57.6242 64.0358C58.139 63.521 58.7501 63.1127 59.4227 62.8341C60.0953 62.5555 60.8162 62.4121 61.5442 62.4121C62.2722 62.4121 62.9931 62.5555 63.6657 62.8341C64.3383 63.1127 64.9494 63.521 65.4642 64.0358" stroke="black" stroke-width="1.5" stroke-linecap="round" stroke-linejoin="round"/>
<path d="M26.9641 64.0358C27.4789 64.5501 27.8873 65.1608 28.1661 65.833C28.4449 66.5051 28.5885 67.2256 28.5888 67.9533C28.5892 68.681 28.4462 69.4016 28.168 70.074C27.8898 70.7465 27.4819 71.3575 26.9676 71.8723C26.4533 72.3871 25.8426 72.7955 25.1704 73.0743C24.4982 73.3531 23.7778 73.4967 23.0501 73.497C22.3224 73.4974 21.6018 73.3544 20.9293 73.0762C20.2569 72.798 19.6459 72.3901 19.1311 71.8758C18.0914 70.8371 17.507 69.4279 17.5063 67.9583C17.5057 66.4886 18.0889 65.0789 19.1276 64.0393C20.1663 62.9996 21.5755 62.4152 23.0451 62.4146C24.5147 62.4139 25.9244 62.9971 26.9641 64.0358" stroke="black" stroke-width="1.5" stroke-linecap="round" stroke-linejoin="round"/>
<path d="M29.3895 32.613C25.5289 32.613 21.8264 31.0794 19.0965 28.3495C16.3666 25.6196 14.833 21.9171 14.833 18.0565C14.833 10.1815 21.5285 3.49301 29.4 3.50001C31.3116 3.50069 33.2043 3.87789 34.9701 4.61006C36.736 5.34223 38.3403 6.41503 39.6915 7.76722C41.0427 9.1194 42.1143 10.7245 42.8452 12.4908C43.5761 14.2572 43.9519 16.1502 43.9513 18.0618C43.9506 19.9733 43.5734 21.8661 42.8412 23.6319C42.109 25.3977 41.0362 27.002 39.684 28.3532C38.3319 29.7044 36.7268 30.7761 34.9604 31.507C33.1941 32.2379 31.3011 32.6137 29.3895 32.613" stroke="black" stroke-width="1.5"/>
<path d="M35.8575 14.8223L27.769 22.9108L22.918 18.0563" stroke="#68D237" stroke-width="1.5" stroke-linecap="round" stroke-linejoin="round"/>
</g>
<defs>
<clipPath id="clip0_1_2260">
<rect width="84" height="84" fill="white"/>
</clipPath>
</defs>
</svg>
