<svg width="20" height="19" viewBox="0 0 20 19" fill="none" xmlns="http://www.w3.org/2000/svg">
<path fill-rule="evenodd" clip-rule="evenodd" d="M6.43144 2.22266C3.77961 2.22266 1.87744 4.74879 1.87744 7.22766C1.87744 9.81772 3.50125 12.1922 5.4641 13.9696C6.43398 14.8478 7.45521 15.5504 8.3311 16.0297C8.76912 16.2694 9.16157 16.4481 9.48512 16.565C9.82372 16.6874 10.0345 16.7227 10.1274 16.7227C10.2204 16.7227 10.4312 16.6874 10.7698 16.565C11.0933 16.4481 11.4858 16.2694 11.9238 16.0297C12.7997 15.5504 13.8209 14.8478 14.7908 13.9696C16.7536 12.1922 18.3774 9.81772 18.3774 7.22766C18.3774 4.74879 16.4753 2.22266 13.8234 2.22266C12.2891 2.22266 11.2895 2.97856 10.6975 3.67099C10.555 3.83768 10.3467 3.93366 10.1274 3.93366C9.90815 3.93366 9.69984 3.83768 9.55735 3.67099C8.96543 2.97856 7.96576 2.22266 6.43144 2.22266ZM0.377441 7.22766C0.377441 4.15652 2.73327 0.722656 6.43144 0.722656C8.09061 0.722656 9.3039 1.38337 10.1274 2.11494C10.951 1.38337 12.1643 0.722656 13.8234 0.722656C17.5216 0.722656 19.8774 4.15652 19.8774 7.22766C19.8774 10.4386 17.8902 13.1866 15.7976 15.0815C14.7397 16.0394 13.6221 16.8103 12.6438 17.3456C12.1547 17.6132 11.6912 17.827 11.2795 17.9757C10.8828 18.1191 10.479 18.2227 10.1274 18.2227C9.77589 18.2227 9.37203 18.1191 8.97536 17.9757C8.56364 17.827 8.10017 17.6132 7.6111 17.3456C6.63279 16.8103 5.51515 16.0394 4.45728 15.0815C2.36464 13.1866 0.377441 10.4386 0.377441 7.22766Z" fill="#F69520"/>
</svg>
