<svg width="16" height="16" viewBox="0 0 16 16" fill="none" xmlns="http://www.w3.org/2000/svg">
<path fill-rule="evenodd" clip-rule="evenodd" d="M5 2.5C4.33696 2.5 3.70107 2.76339 3.23223 3.23223C2.76339 3.70107 2.5 4.33696 2.5 5V11.0027C2.5 11.665 2.76311 12.3002 3.23145 12.7685C3.69979 13.2369 4.335 13.5 4.99733 13.5H11.0027C11.6649 13.5 12.3 13.237 12.7684 12.7687C13.2367 12.3006 13.4998 11.6655 13.5 11.0033C13.5 11.0033 13.5 11.0034 13.5 11.0033V4.99733C13.5 4.66938 13.4354 4.34464 13.3099 4.04165C13.1844 3.73866 13.0004 3.46335 12.7685 3.23145C12.5366 2.99955 12.2613 2.8156 11.9584 2.6901C11.6554 2.5646 11.3306 2.5 11.0027 2.5H5ZM5 1.5C4.07174 1.5 3.1815 1.86875 2.52513 2.52513C1.86875 3.1815 1.5 4.07174 1.5 5V11.0027C1.5 11.9302 1.86847 12.8198 2.52435 13.4757C3.18022 14.1315 4.06978 14.5 4.99733 14.5H11.0027C11.9301 14.5 12.8195 14.1316 13.4754 13.4759C14.1312 12.8202 14.4998 11.9309 14.5 11.0034V4.99733C14.5 4.53806 14.4095 4.08328 14.2338 3.65896C14.058 3.23465 13.8004 2.8491 13.4757 2.52435C13.1509 2.19959 12.7654 1.94198 12.341 1.76622C11.9167 1.59046 11.4619 1.5 11.0027 1.5H5Z" fill="white"/>
<path fill-rule="evenodd" clip-rule="evenodd" d="M5.41357 6.90002C5.68972 6.90002 5.91357 7.12388 5.91357 7.40002V11C5.91357 11.2762 5.68972 11.5 5.41357 11.5C5.13743 11.5 4.91357 11.2762 4.91357 11V7.40002C4.91357 7.12388 5.13743 6.90002 5.41357 6.90002Z" fill="white"/>
<path fill-rule="evenodd" clip-rule="evenodd" d="M9.3125 7.90002C9.04728 7.90002 8.79293 8.00538 8.60539 8.19292C8.41786 8.38045 8.3125 8.63481 8.3125 8.90002V11C8.3125 11.2762 8.08864 11.5 7.8125 11.5C7.53636 11.5 7.3125 11.2762 7.3125 11V8.90002C7.3125 8.36959 7.52321 7.86088 7.89829 7.48581C8.27336 7.11074 8.78207 6.90002 9.3125 6.90002C9.84293 6.90002 10.3516 7.11074 10.7267 7.48581C11.1018 7.86088 11.3125 8.36959 11.3125 8.90002V11C11.3125 11.2762 11.0886 11.5 10.8125 11.5C10.5364 11.5 10.3125 11.2762 10.3125 11V8.90002C10.3125 8.63481 10.2071 8.38045 10.0196 8.19292C9.83207 8.00538 9.57772 7.90002 9.3125 7.90002Z" fill="white"/>
<path fill-rule="evenodd" clip-rule="evenodd" d="M5.40981 4.72535C5.49541 4.72497 5.58025 4.7415 5.65944 4.774C5.73863 4.80649 5.81063 4.8543 5.87129 4.9147C5.93196 4.9751 5.9801 5.04689 6.01294 5.12593C6.04579 5.20498 6.0627 5.28974 6.0627 5.37535C6.06269 5.50378 6.02464 5.62934 5.95335 5.73617C5.88205 5.84299 5.78071 5.92631 5.6621 5.97559C5.54349 6.02487 5.41295 6.03791 5.28695 6.01306C5.16094 5.98821 5.04512 5.9266 4.9541 5.83598C4.86308 5.74536 4.80094 5.62981 4.77554 5.50392C4.75013 5.37802 4.76259 5.24742 4.81135 5.1286C4.8601 5.00978 4.94297 4.90806 5.04948 4.83629C5.15599 4.76453 5.28137 4.72592 5.40981 4.72535Z" fill="white"/>
</svg>
