<svg width="24" height="24" viewBox="0 0 24 24" fill="none" xmlns="http://www.w3.org/2000/svg">
<path fill-rule="evenodd" clip-rule="evenodd" d="M8.24854 6.43689C8.24854 6.02268 8.58432 5.68689 8.99854 5.68689H20.0031C20.4173 5.68689 20.7531 6.02268 20.7531 6.43689C20.7531 6.8511 20.4173 7.18689 20.0031 7.18689H8.99854C8.58432 7.18689 8.24854 6.8511 8.24854 6.43689Z" fill="black"/>
<path fill-rule="evenodd" clip-rule="evenodd" d="M8.24854 12.0001C8.24854 11.5859 8.58432 11.2501 8.99854 11.2501H20.0031C20.4173 11.2501 20.7531 11.5859 20.7531 12.0001C20.7531 12.4143 20.4173 12.7501 20.0031 12.7501H8.99854C8.58432 12.7501 8.24854 12.4143 8.24854 12.0001Z" fill="black"/>
<path fill-rule="evenodd" clip-rule="evenodd" d="M8.24854 17.5635C8.24854 17.1493 8.58432 16.8135 8.99854 16.8135H20.0031C20.4173 16.8135 20.7531 17.1493 20.7531 17.5635C20.7531 17.9777 20.4173 18.3135 20.0031 18.3135H8.99854C8.58432 18.3135 8.24854 17.9777 8.24854 17.5635Z" fill="black"/>
<path fill-rule="evenodd" clip-rule="evenodd" d="M3.24658 6.43685C3.24658 5.74638 3.80632 5.18665 4.49679 5.18665C5.18726 5.18665 5.747 5.74638 5.747 6.43685C5.747 7.12732 5.18726 7.68706 4.49679 7.68706C3.80632 7.68706 3.24658 7.12732 3.24658 6.43685Z" fill="black"/>
<path fill-rule="evenodd" clip-rule="evenodd" d="M3.24658 12.0002C3.24658 11.3097 3.80632 10.75 4.49679 10.75C5.18726 10.75 5.747 11.3097 5.747 12.0002C5.747 12.6907 5.18726 13.2504 4.49679 13.2504C3.80632 13.2504 3.24658 12.6907 3.24658 12.0002Z" fill="black"/>
<path fill-rule="evenodd" clip-rule="evenodd" d="M3.24658 17.5634C3.24658 16.873 3.80632 16.3132 4.49679 16.3132C5.18726 16.3132 5.747 16.873 5.747 17.5634C5.747 18.2539 5.18726 18.8136 4.49679 18.8136C3.80632 18.8136 3.24658 18.2539 3.24658 17.5634Z" fill="black"/>
</svg>
