<svg width="16" height="16" viewBox="0 0 16 16" fill="none" xmlns="http://www.w3.org/2000/svg">
<g clip-path="url(#clip0_1_689)">
<path fill-rule="evenodd" clip-rule="evenodd" d="M2.54535 12.183H13.455C13.5107 12.183 13.5557 12.1362 13.5557 12.0787V3.92202C13.5557 3.86407 13.5102 3.81696 13.4542 3.81696H2.54535C2.49055 3.81696 2.44461 3.86361 2.44461 3.92202V12.0787C2.4446 12.0923 2.44718 12.1064 2.45221 12.119C2.45723 12.1316 2.46461 12.143 2.4739 12.1526C2.48319 12.1623 2.49422 12.1699 2.50637 12.1751C2.51851 12.1803 2.53221 12.183 2.54535 12.183ZM2.54535 13.3333H13.455C14.1239 13.3333 14.6668 12.7719 14.6668 12.0787V3.92202C14.6668 3.22876 14.1239 2.66663 13.4542 2.66663H2.54535C1.87646 2.66663 1.3335 3.22876 1.3335 3.92202V12.0787C1.3334 12.2435 1.36468 12.4066 1.42555 12.5589C1.48641 12.7112 1.57567 12.8495 1.68822 12.966C1.80077 13.0826 1.9344 13.175 2.08148 13.238C2.22855 13.301 2.38618 13.3334 2.54535 13.3333Z" fill="white"/>
<path d="M2.0791 4.04998L7.20843 7.71865C7.43443 7.88038 7.70532 7.96744 7.98322 7.96768C8.26113 7.96792 8.53216 7.88132 8.75843 7.71998L13.9171 4.04065" stroke="white" stroke-width="1.5" stroke-linecap="round" stroke-linejoin="round"/>
</g>
<defs>
<clipPath id="clip0_1_689">
<rect width="16" height="16" fill="white"/>
</clipPath>
</defs>
</svg>
