<svg width="94" height="94" viewBox="0 0 94 94" fill="none" xmlns="http://www.w3.org/2000/svg">
<g clip-path="url(#clip0_1_2324)">
<path d="M62.6273 66.5835L54.7939 74.4168L62.6273 82.2502" stroke="black" stroke-width="1.5" stroke-linecap="round" stroke-linejoin="round"/>
<path d="M52.5379 29.7116C53.2861 30.4342 53.8829 31.2986 54.2934 32.2543C54.7039 33.21 54.92 34.2379 54.9291 35.278C54.9381 36.3181 54.7399 37.3496 54.346 38.3122C53.9522 39.2749 53.3705 40.1495 52.635 40.885C51.8995 41.6205 51.0249 42.2022 50.0622 42.596C49.0996 42.9899 48.0681 43.1881 47.028 43.1791C45.9879 43.17 44.96 42.9539 44.0043 42.5434C43.0486 42.1329 42.1842 41.5361 41.4616 40.7879C40.0347 39.3106 39.2451 37.3318 39.263 35.278C39.2808 33.2241 40.1047 31.2594 41.557 29.807C43.0094 28.3547 44.9741 27.5308 47.028 27.513C49.0818 27.4951 51.0606 28.2847 52.5379 29.7116" stroke="#68D237" stroke-width="1.5" stroke-linecap="round" stroke-linejoin="round"/>
<path d="M25.4585 29.375V41.125" stroke="#ADADAD" stroke-width="1.5" stroke-linecap="round" stroke-linejoin="round"/>
<path d="M68.5415 29.375V41.125" stroke="#ADADAD" stroke-width="1.5" stroke-linecap="round" stroke-linejoin="round"/>
<path d="M43.0833 58.75H19.5833C17.5058 58.75 15.5134 57.9247 14.0443 56.4557C12.5753 54.9866 11.75 52.9942 11.75 50.9167V19.5833C11.75 17.5058 12.5753 15.5134 14.0443 14.0443C15.5134 12.5753 17.5058 11.75 19.5833 11.75H74.4167C76.4942 11.75 78.4866 12.5753 79.9557 14.0443C81.4247 15.5134 82.25 17.5058 82.25 19.5833V43.0833" stroke="#ADADAD" stroke-width="1.5" stroke-linecap="round" stroke-linejoin="round"/>
<path d="M70.5002 58.75H74.4168C76.4944 58.75 78.4868 59.5753 79.9558 61.0443C81.4249 62.5134 82.2502 64.5058 82.2502 66.5833C82.2502 68.6609 81.4249 70.6533 79.9558 72.1223C78.4868 73.5914 76.4944 74.4167 74.4168 74.4167H54.8335" stroke="black" stroke-width="1.5" stroke-linecap="round" stroke-linejoin="round"/>
</g>
<defs>
<clipPath id="clip0_1_2324">
<rect width="94" height="94" fill="white"/>
</clipPath>
</defs>
</svg>
