<?xml version="1.0" encoding="utf-8"?>
<!-- Generator: Adobe Illustrator 28.1.0, SVG Export Plug-In . SVG Version: 6.00 Build 0)  -->
<svg version="1.1" id="Layer_1" xmlns="http://www.w3.org/2000/svg" xmlns:xlink="http://www.w3.org/1999/xlink" x="0px" y="0px"
	 viewBox="0 0 90 91.3" style="enable-background:new 0 0 90 91.3;" xml:space="preserve">
<style type="text/css">
	.st0{fill:#FFFFFF;}
</style>
<path class="st0" d="M88.1,85.2l-28-28c12.3-13.9,11-35.2-2.9-47.5s-35.2-11-47.5,2.9s-11,35.2,2.9,47.5c12.7,11.3,31.8,11.3,44.6,0
	l28,28c0.8,0.8,2.1,0.8,2.9-0.1C88.9,87.3,88.9,86,88.1,85.2z M14,55.8C2.5,44.3,2.5,25.6,14,14s30.3-11.6,41.8,0s11.6,30.3,0,41.8
	c0,0,0,0,0,0C44.3,67.4,25.6,67.4,14,55.8z"/>
</svg>
