<svg width="79" height="79" viewBox="0 0 79 79" fill="none" xmlns="http://www.w3.org/2000/svg">
<path d="M62.5418 55.9582H59.2502C58.3772 55.9582 57.5399 55.6114 56.9226 54.9941C56.3053 54.3768 55.9585 53.5395 55.9585 52.6665V36.2082C55.9585 35.3352 56.3053 34.4979 56.9226 33.8806C57.5399 33.2633 58.3772 32.9165 59.2502 32.9165H62.5418C64.2878 32.9165 65.9623 33.6101 67.1969 34.8447C68.4316 36.0793 69.1252 37.7538 69.1252 39.4998V49.3748C69.1252 51.1208 68.4316 52.7953 67.1969 54.03C65.9623 55.2646 64.2878 55.9582 62.5418 55.9582Z" stroke="#ADADAD" stroke-width="1.5" stroke-linecap="round" stroke-linejoin="round"/>
<path d="M19.75 55.9582H16.4583C14.7123 55.9582 13.0378 55.2646 11.8032 54.03C10.5686 52.7953 9.875 51.1208 9.875 49.3748V39.4998C9.875 37.7538 10.5686 36.0793 11.8032 34.8447C13.0378 33.6101 14.7123 32.9165 16.4583 32.9165H19.75C20.623 32.9165 21.4603 33.2633 22.0776 33.8806C22.6949 34.4979 23.0417 35.3352 23.0417 36.2082V52.6665C23.0417 53.5395 22.6949 54.3768 22.0776 54.9941C21.4603 55.6114 20.623 55.9582 19.75 55.9582Z" stroke="#ADADAD" stroke-width="1.5" stroke-linecap="round" stroke-linejoin="round"/>
<path d="M60.8957 32.9167V31.2708C60.8957 25.5963 58.6415 20.1542 54.629 16.1417C50.6165 12.1292 45.1744 9.875 39.4998 9.875C33.8253 9.875 28.3832 12.1292 24.3707 16.1417C20.3582 20.1542 18.104 25.5963 18.104 31.2708V32.9167" stroke="#ADADAD" stroke-width="1.5" stroke-linecap="round" stroke-linejoin="round"/>
<path d="M45.6719 65.8335H52.6667C54.4127 65.8335 56.0872 65.1399 57.3218 63.9053C58.5564 62.6707 59.25 60.9962 59.25 59.2502V55.9585" stroke="black" stroke-width="1.5" stroke-linecap="round" stroke-linejoin="round"/>
<path d="M41.5573 69.9479H37.4427C36.3515 69.9479 35.3049 69.5144 34.5333 68.7428C33.7616 67.9712 33.3281 66.9246 33.3281 65.8333C33.3281 64.7421 33.7616 63.6955 34.5333 62.9239C35.3049 62.1522 36.3515 61.7188 37.4427 61.7188H41.5573C42.6485 61.7188 43.6951 62.1522 44.4667 62.9239C45.2384 63.6955 45.6719 64.7421 45.6719 65.8333C45.6719 66.9246 45.2384 67.9712 44.4667 68.7428C43.6951 69.5144 42.6485 69.9479 41.5573 69.9479V69.9479Z" stroke="#68D237" stroke-width="1.5" stroke-linecap="round" stroke-linejoin="round"/>
</svg>
