<svg width="20" height="17" viewBox="0 0 20 17" fill="none" xmlns="http://www.w3.org/2000/svg">
<path fill-rule="evenodd" clip-rule="evenodd" d="M5.54417 4.01997C4.08662 5.14637 2.80585 6.69614 1.90541 8.36139L1.24569 8.00466L1.90574 8.36077C1.8687 8.42943 1.86866 8.51463 1.90563 8.58333C2.80606 10.2489 4.08676 11.7988 5.5442 12.9252C7.00584 14.0549 8.59607 14.7227 10.1277 14.7227C11.6593 14.7227 13.2495 14.0549 14.7112 12.9253C16.1687 11.7989 17.4495 10.2492 18.35 8.58392C18.3866 8.51542 18.3866 8.4306 18.3498 8.36214C17.4494 6.69648 16.1686 5.14654 14.7112 4.02007C13.2495 2.89039 11.6593 2.22266 10.1277 2.22266C8.59606 2.22266 7.00583 2.8904 5.54417 4.01997ZM4.62694 2.83309C6.25953 1.57142 8.1643 0.722656 10.1277 0.722656C12.0911 0.722656 13.9958 1.57142 15.6284 2.83324C17.2652 4.09823 18.6779 5.81473 19.6695 7.649L19.6697 7.64954C19.9467 8.16281 19.9467 8.7835 19.6697 9.29677L19.6694 9.29739C18.6779 11.1311 17.2651 12.8474 15.6284 14.1122C13.9958 15.3739 12.0911 16.2227 10.1277 16.2227C8.16429 16.2227 6.25952 15.3739 4.62691 14.1121C2.9902 12.8471 1.57746 11.1306 0.585908 9.29631L0.585618 9.29577C0.3087 8.78251 0.3087 8.16181 0.585618 7.64854L0.585951 7.64792C1.57751 5.81417 2.99024 4.09794 4.62694 2.83309Z" fill="#F69520"/>
<path fill-rule="evenodd" clip-rule="evenodd" d="M11.7441 6.85636C10.8515 5.96375 9.40426 5.96375 8.51164 6.85636C7.61902 7.74898 7.61902 9.19621 8.51164 10.0888C9.40426 10.9815 10.8515 10.9815 11.7441 10.0888C12.6367 9.19621 12.6367 7.74898 11.7441 6.85636ZM12.7543 5.84619C11.3038 4.39567 8.95199 4.39567 7.50147 5.84619C6.05094 7.29671 6.05094 9.64848 7.50147 11.099C8.95199 12.5495 11.3038 12.5495 12.7543 11.099C14.2048 9.64848 14.2048 7.29671 12.7543 5.84619Z" fill="#F69520"/>
</svg>
